<svg width="512" height="512" viewBox="0 0 512 512" fill="none" xmlns="http://www.w3.org/2000/svg" role="img" aria-label="EG Shop">
  <defs><linearGradient id="a" x1="62" y1="42" x2="454" y2="470" gradientUnits="userSpaceOnUse"><stop stop-color="#9B5CFF"/><stop offset="1" stop-color="#5B21B6"/></linearGradient></defs>
  <rect x="28" y="28" width="456" height="456" rx="138" fill="url(#a)"/>
  <path d="M131 147h120v47h-68v39h59v44h-59v42h71v47H131V147Z" fill="white"/>
  <path d="M282 153c24-12 65-15 99 3l-19 45c-20-10-39-10-53-3-18 9-29 29-29 56 0 44 23 69 57 69 8 0 15-1 21-4v-39h-42v-43h92v113c-23 15-49 23-77 23-65 0-110-44-110-116 0-48 22-85 61-104Z" fill="white"/>
  <circle cx="414" cy="108" r="22" fill="#FCD34D"/>
</svg>
